<svg width="2050" height="2151" viewBox="0 0 2050 2151" fill="none" xmlns="http://www.w3.org/2000/svg">
<g opacity="0.15" clip-path="url(#clip0_677_1630)">
<rect width="2050" height="2151" transform="translate(2050 2150.99) rotate(180)" fill="white"/>
<path d="M1787.52 -26.5707C1787.52 167.639 1945.47 325.988 2140.09 325.988C2144.11 325.988 2148.14 325.988 2151.77 325.585L2151.77 -49.5375L1788.33 -49.5374C1787.92 -42.2848 1787.52 -34.6292 1787.52 -26.5707ZM2140.09 -28.5854C2141.29 -28.5854 2142.1 -27.7795 2142.1 -26.5707C2142.1 -25.362 2141.29 -24.5561 2140.09 -24.5561C2138.88 -24.5561 2138.07 -25.362 2138.07 -26.5707C2138.07 -27.7795 2138.88 -28.5854 2140.09 -28.5854Z" fill="black"/>
<path d="M2140.09 580.233C2144.11 580.233 2148.14 580.233 2151.77 580.233L2151.77 229.689C2147.74 229.689 2144.11 230.092 2140.09 230.092C1998.66 230.092 1883.82 115.258 1883.82 -26.168C1883.82 -33.8236 1884.22 -41.4789 1885.03 -49.1345L1533.67 -49.1345C1533.27 -41.4789 1533.27 -33.8235 1533.27 -26.168C1533.27 307.856 1805.25 580.233 2140.09 580.233Z" fill="#00042C"/>
<path d="M1531.26 582.249C1694.04 745.03 1910.01 834.48 2140.09 834.479C2144.11 834.479 2148.14 834.479 2151.77 834.479L2151.77 483.935C2147.74 483.935 2143.71 483.935 2140.09 483.935C1858.44 483.935 1629.57 255.074 1629.57 -26.5701C1629.57 -34.2257 1629.97 -41.8813 1629.97 -49.5369L1279.02 -49.5369C1279.02 -41.8813 1278.62 -34.2257 1278.62 -26.5701C1279.02 203.097 1368.47 419.467 1531.26 582.249Z" fill="#000C43"/>
<path d="M1351.15 761.953C1561.88 972.683 1841.92 1088.72 2139.68 1088.72C2143.71 1088.72 2147.74 1088.72 2151.37 1088.72L2151.37 738.18C2147.34 738.18 2143.31 738.18 2139.68 738.18C1717.81 738.18 1374.92 394.889 1374.92 -26.5701C1374.92 -34.2257 1374.92 -41.8813 1375.32 -49.5369L1024.77 -49.5368C1024.77 -41.8813 1024.37 -34.2257 1024.37 -26.5701C1024.77 271.191 1140.41 551.224 1351.15 761.953Z" fill="#00164F"/>
<path d="M878.106 506.499C947.007 669.683 1045.72 815.945 1171.44 941.657C1297.15 1067.37 1443.82 1166.09 1606.61 1234.99C1775.43 1306.3 1955.14 1342.57 2139.68 1342.57C2143.71 1342.57 2147.74 1342.57 2151.37 1342.57L2151.37 992.023C2147.34 992.023 2143.31 992.023 2139.68 992.023C1867.3 992.023 1611.44 886.054 1418.84 693.456C1226.24 500.858 1120.27 245.001 1120.27 -26.9729C1120.27 -34.6284 1120.27 -42.2841 1120.67 -49.9396L770.12 -49.9396C770.12 -42.284 769.717 -34.6284 769.717 -26.9729C770.12 157.97 806.384 337.674 878.106 506.499Z" fill="#00215A"/>
<path d="M643.599 605.618C725.394 799.022 842.647 972.682 991.732 1121.76C1140.82 1270.85 1314.48 1388.1 1507.89 1469.89C1708.14 1554.51 1920.89 1597.62 2140.09 1597.62C2144.11 1597.62 2148.14 1597.62 2151.77 1597.62L2151.77 1247.07C2147.74 1247.07 2143.71 1247.07 2140.09 1247.07C1800.01 1247.07 1480.08 1114.51 1239.53 873.966C998.984 633.42 866.42 313.497 866.42 -26.5709C866.42 -34.2265 866.42 -41.8821 866.823 -49.5377L516.273 -49.5377C516.273 -41.8821 516.273 -34.2265 516.273 -26.5709C515.87 192.62 558.983 404.961 643.599 605.618Z" fill="#003371"/>
<path d="M409.497 704.334C504.185 927.958 639.57 1129.02 812.025 1301.47C984.48 1473.92 1185.14 1609.3 1409.17 1703.99C1640.85 1801.9 1887.05 1851.86 2140.49 1851.86C2144.52 1851.86 2148.55 1851.86 2152.17 1851.86L2152.17 1501.32C2148.14 1501.32 2144.12 1501.32 2140.49 1501.32C1732.32 1501.32 1348.73 1342.57 1060.23 1053.67C771.732 765.176 612.574 381.592 612.574 -26.5708C612.574 -34.2264 612.574 -41.882 612.574 -49.5376L262.024 -49.5375C262.024 -41.882 262.024 -34.2264 262.024 -26.5708C261.621 226.869 311.584 472.653 409.497 704.334Z" fill="#004986"/>
<path d="M174.991 803.454C282.573 1057.3 436.09 1285.35 631.915 1481.17C827.739 1676.99 1055.8 1830.91 1309.64 1938.09C1572.76 2049.3 1851.99 2105.71 2139.68 2105.71C2143.71 2105.71 2147.74 2105.71 2151.37 2105.71L2151.37 1755.16C2147.34 1755.16 2143.31 1755.16 2139.68 1755.16C1899.13 1755.16 1665.84 1708.02 1446.24 1615.35C1233.89 1525.49 1043.31 1396.96 879.717 1233.37C716.127 1069.79 587.592 879.204 497.738 666.862C405.064 447.269 357.921 213.975 357.921 -26.5707C357.921 -34.2263 357.921 -41.8819 357.921 -49.5375L7.37134 -49.5375C7.37134 -41.8819 7.37134 -34.2263 7.37134 -26.5707C7.37137 261.117 63.7817 540.344 174.991 803.454Z" fill="#00598C"/>
<path d="M-59.1093 902.573C60.9642 1186.64 233.015 1442.09 452.21 1661.28C671.404 1880.47 926.46 2052.52 1210.93 2172.59C1236.72 2183.47 1262.5 2193.54 1288.29 2203.62L2151.77 2203.62L2151.77 2009.41C2147.74 2009.41 2143.71 2009.41 2140.09 2009.41C1865.29 2009.41 1598.55 1955.42 1347.52 1849.45C1104.96 1746.7 887.375 1600.04 700.013 1413.08C512.65 1226.12 365.983 1008.14 263.638 765.579C157.668 514.557 103.674 247.821 103.674 -26.9738C103.674 -34.6294 103.674 -42.285 103.674 -49.9405L-91.3438 -49.9405L-91.3438 822.794C-80.8675 849.387 -70.3913 875.98 -59.1093 902.573Z" fill="#006D97"/>
<path d="M272.5 1840.98C410.705 1979.19 561.805 2100.47 724.589 2203.62L1615.47 2203.62C1490.56 2174.2 1368.07 2134.31 1248.4 2083.95C975.615 1968.71 730.633 1803.51 520.303 1593.19C309.973 1382.86 144.771 1137.88 29.5328 865.102C-21.2365 744.627 -61.5297 620.929 -90.9437 494.814L-90.9436 1387.69C12.2068 1550.48 133.892 1702.38 272.5 1840.98Z" fill="#00809C"/>
<path d="M92.7926 2020.69C157.262 2085.16 224.148 2146 293.452 2203.62L913.16 2203.62C703.636 2088.38 511.841 1944.13 340.595 1772.89C168.947 1601.24 24.2943 1408.65 -90.944 1198.72L-90.9439 1819.23C-33.3248 1888.53 27.9207 1955.82 92.7926 2020.69Z" fill="#009EAD"/>
<path d="M-87.317 2200.39C-86.1082 2201.6 -85.3027 2202.41 -84.0939 2203.62L447.775 2203.62C347.042 2127.06 251.145 2043.25 160.485 1952.59C69.4231 1861.53 -14.3866 1765.23 -91.3464 1664.1L-91.3463 2196.36C-89.7346 2197.57 -88.5258 2199.18 -87.317 2200.39Z" fill="#00C0C0"/>
<g filter="url(#filter0_f_677_1630)">
<rect x="-103" y="1664" width="1545" height="744" fill="#0C1431"/>
</g>
</g>
<defs>
<filter id="filter0_f_677_1630" x="-303" y="1464" width="1945" height="1144" filterUnits="userSpaceOnUse" color-interpolation-filters="sRGB">
<feFlood flood-opacity="0" result="BackgroundImageFix"/>
<feBlend mode="normal" in="SourceGraphic" in2="BackgroundImageFix" result="shape"/>
<feGaussianBlur stdDeviation="100" result="effect1_foregroundBlur_677_1630"/>
</filter>
<clipPath id="clip0_677_1630">
<rect width="2050" height="2151" fill="white" transform="translate(2050 2150.99) rotate(180)"/>
</clipPath>
</defs>
</svg>
