<svg width="124" height="124" viewBox="0 0 124 124" fill="none" xmlns="http://www.w3.org/2000/svg"><path fill-rule="evenodd" clip-rule="evenodd" d="M61.9996 123.998C96.2408 123.998 123.999 96.2404 123.999 61.9992C123.999 27.758 96.2408 0 61.9996 0C27.7584 0 0.000366211 27.758 0.000366211 61.9992C0.000366211 96.2404 27.7584 123.998 61.9996 123.998Z" fill="#1C275A"/><path d="M59.5415 65.4585C58.9564 65.4585 58.3845 65.632 57.898 65.9571C57.4115 66.2821 57.0323 66.7442 56.8084 67.2847C56.5845 67.8253 56.5259 68.4201 56.6401 68.994C56.7542 69.5678 57.036 70.095 57.4497 70.5087C57.8634 70.9224 58.3905 71.2042 58.9644 71.3183C59.5383 71.4325 60.1331 71.3739 60.6737 71.15C61.2142 70.9261 61.6762 70.5469 62.0013 70.0604C62.3264 69.5739 62.4999 69.0019 62.4999 68.4168C62.4999 67.6322 62.1882 66.8798 61.6334 66.325C61.0786 65.7702 60.3261 65.4585 59.5415 65.4585ZM47.7082 65.4585C47.1231 65.4585 46.5511 65.632 46.0647 65.9571C45.5782 66.2821 45.199 66.7442 44.9751 67.2847C44.7512 67.8253 44.6926 68.4201 44.8067 68.994C44.9209 69.5678 45.2026 70.095 45.6164 70.5087C46.0301 70.9224 46.5572 71.2042 47.1311 71.3183C47.7049 71.4325 48.2998 71.3739 48.8403 71.15C49.3809 70.9261 49.8429 70.5469 50.168 70.0604C50.493 69.5739 50.6665 69.0019 50.6665 68.4168C50.6665 67.6322 50.3549 66.8798 49.8001 66.325C49.2453 65.7702 48.4928 65.4585 47.7082 65.4585ZM92.0832 38.8335C92.0832 36.4797 91.1482 34.2223 89.4838 32.5579C87.8194 30.8935 85.562 29.9585 83.2082 29.9585H41.7915C39.4377 29.9585 37.1804 30.8935 35.516 32.5579C33.8516 34.2223 32.9165 36.4797 32.9165 38.8335V50.6668C32.9296 52.8562 33.7514 54.9634 35.224 56.5835C33.7514 58.2036 32.9296 60.3108 32.9165 62.5002V74.3335C32.9165 76.6873 33.8516 78.9447 35.516 80.6091C37.1804 82.2734 39.4377 83.2085 41.7915 83.2085H59.5415V89.1252H35.8749C35.0903 89.1252 34.3378 89.4368 33.783 89.9916C33.2282 90.5464 32.9165 91.2989 32.9165 92.0835C32.9165 92.8681 33.2282 93.6206 33.783 94.1753C34.3378 94.7301 35.0903 95.0418 35.8749 95.0418H89.1249C89.9095 95.0418 90.6619 94.7301 91.2167 94.1753C91.7715 93.6206 92.0832 92.8681 92.0832 92.0835C92.0832 91.2989 91.7715 90.5464 91.2167 89.9916C90.6619 89.4368 89.9095 89.1252 89.1249 89.1252H65.4582V83.2085H83.2082C85.562 83.2085 87.8194 82.2734 89.4838 80.6091C91.1482 78.9447 92.0832 76.6873 92.0832 74.3335V62.5002C92.0702 60.3108 91.2483 58.2036 89.7757 56.5835C91.2483 54.9634 92.0702 52.8562 92.0832 50.6668V38.8335ZM86.1665 74.3335C86.1665 75.1181 85.8549 75.8706 85.3001 76.4254C84.7453 76.9801 83.9928 77.2918 83.2082 77.2918H41.7915C41.0069 77.2918 40.2545 76.9801 39.6997 76.4254C39.1449 75.8706 38.8332 75.1181 38.8332 74.3335V62.5002C38.8332 61.7156 39.1449 60.9631 39.6997 60.4083C40.2545 59.8535 41.0069 59.5418 41.7915 59.5418H83.2082C83.9928 59.5418 84.7453 59.8535 85.3001 60.4083C85.8549 60.9631 86.1665 61.7156 86.1665 62.5002V74.3335ZM86.1665 50.6668C86.1665 51.4514 85.8549 52.2039 85.3001 52.7587C84.7453 53.3135 83.9928 53.6252 83.2082 53.6252H41.7915C41.0069 53.6252 40.2545 53.3135 39.6997 52.7587C39.1449 52.2039 38.8332 51.4514 38.8332 50.6668V38.8335C38.8332 38.0489 39.1449 37.2964 39.6997 36.7416C40.2545 36.1868 41.0069 35.8752 41.7915 35.8752H83.2082C83.9928 35.8752 84.7453 36.1868 85.3001 36.7416C85.8549 37.2964 86.1665 38.0489 86.1665 38.8335V50.6668ZM59.5415 41.7918C58.9564 41.7918 58.3845 41.9653 57.898 42.2904C57.4115 42.6155 57.0323 43.0775 56.8084 43.6181C56.5845 44.1586 56.5259 44.7534 56.6401 45.3273C56.7542 45.9012 57.036 46.4283 57.4497 46.842C57.8634 47.2557 58.3905 47.5375 58.9644 47.6517C59.5383 47.7658 60.1331 47.7072 60.6737 47.4833C61.2142 47.2594 61.6762 46.8802 62.0013 46.3937C62.3264 45.9072 62.4999 45.3353 62.4999 44.7502C62.4999 43.9656 62.1882 43.2131 61.6334 42.6583C61.0786 42.1035 60.3261 41.7918 59.5415 41.7918ZM47.7082 41.7918C47.1231 41.7918 46.5511 41.9653 46.0647 42.2904C45.5782 42.6155 45.199 43.0775 44.9751 43.6181C44.7512 44.1586 44.6926 44.7534 44.8067 45.3273C44.9209 45.9012 45.2026 46.4283 45.6164 46.842C46.0301 47.2557 46.5572 47.5375 47.1311 47.6517C47.7049 47.7658 48.2998 47.7072 48.8403 47.4833C49.3809 47.2594 49.8429 46.8802 50.168 46.3937C50.493 45.9072 50.6665 45.3353 50.6665 44.7502C50.6665 43.9656 50.3549 43.2131 49.8001 42.6583C49.2453 42.1035 48.4928 41.7918 47.7082 41.7918Z" fill="#fff"/></svg>