<svg width="124" height="124" viewBox="0 0 124 124" fill="none" xmlns="http://www.w3.org/2000/svg"><path fill-rule="evenodd" clip-rule="evenodd" d="M61.9996 123.998C96.2408 123.998 123.999 96.2404 123.999 61.9992C123.999 27.758 96.2408 0 61.9996 0C27.7584 0 0.000366211 27.758 0.000366211 61.9992C0.000366211 96.2404 27.7584 123.998 61.9996 123.998Z" fill="#1C275A"/><path d="M83.4834 42.6093C79.531 40.8269 75.2945 39.5094 70.8643 38.7603C70.8248 38.7527 70.784 38.7576 70.7474 38.7743C70.7109 38.7909 70.6804 38.8186 70.6602 38.8533C70.1177 39.8065 69.5133 41.049 69.0896 42.0307C64.391 41.3286 59.6141 41.3286 54.9155 42.0307C54.4436 40.9428 53.9115 39.882 53.3216 38.8533C53.3016 38.8181 53.2714 38.7899 53.2349 38.7723C53.1984 38.7548 53.1575 38.7488 53.1175 38.7551C48.6899 39.5043 44.4534 40.8217 40.4985 42.6067C40.4645 42.621 40.4356 42.6453 40.4158 42.6765C32.3768 54.4947 30.1733 66.0211 31.2557 77.4028C31.2587 77.4307 31.2674 77.4576 31.2811 77.482C31.2949 77.5065 31.3135 77.5278 31.3358 77.5449C36.0279 80.961 41.2614 83.5633 46.817 85.2429C46.8558 85.2548 46.8972 85.2548 46.9359 85.2428C46.9746 85.2308 47.0088 85.2074 47.034 85.1757C48.2275 83.5741 49.2918 81.8821 50.2011 80.1048C50.2553 80.0015 50.2037 79.8775 50.0952 79.8362C48.4264 79.2077 46.8095 78.4494 45.2594 77.5681C45.2315 77.5522 45.208 77.5296 45.1911 77.5024C45.1741 77.4752 45.1641 77.4442 45.1621 77.4122C45.16 77.3802 45.1659 77.3482 45.1793 77.319C45.1927 77.2899 45.2131 77.2645 45.2387 77.2452C45.5642 77.005 45.8897 76.7544 46.1997 76.5038C46.2276 76.4813 46.2612 76.4669 46.2967 76.4624C46.3323 76.4578 46.3685 76.4632 46.4012 76.478C56.5455 81.0348 67.5319 81.0348 77.5574 76.478C77.5902 76.4623 77.6267 76.4562 77.6628 76.4603C77.6989 76.4644 77.7331 76.4786 77.7615 76.5012C78.0715 76.7544 78.3944 77.005 78.7225 77.2452C78.7483 77.2641 78.7691 77.2891 78.7829 77.318C78.7967 77.347 78.8031 77.3788 78.8015 77.4108C78.8 77.4428 78.7906 77.4739 78.7741 77.5014C78.7576 77.5288 78.7345 77.5517 78.707 77.5681C77.1622 78.4567 75.5554 79.2084 73.8686 79.8336C73.8427 79.843 73.8191 79.8578 73.7994 79.8771C73.7796 79.8963 73.7643 79.9196 73.7542 79.9452C73.7442 79.9709 73.7398 79.9984 73.7412 80.0259C73.7427 80.0535 73.75 80.0804 73.7627 80.1048C74.6926 81.8795 75.7569 83.5689 76.9271 85.1731C76.9515 85.206 76.9853 85.2306 77.0242 85.2436C77.063 85.2565 77.1049 85.2572 77.1441 85.2454C82.7093 83.5706 87.9513 80.967 92.6486 77.5449C92.6716 77.5288 92.6908 77.5081 92.705 77.484C92.7193 77.46 92.7282 77.4332 92.7313 77.4054C94.0229 64.2464 90.5666 52.8131 83.5634 42.6816C83.5463 42.6487 83.5178 42.6231 83.4834 42.6093ZM51.7174 70.472C48.6641 70.472 46.1454 67.7105 46.1454 64.3239C46.1454 60.9347 48.615 58.1758 51.7174 58.1758C54.8431 58.1758 57.3385 60.958 57.2894 64.3239C57.2894 67.7131 54.8199 70.472 51.7174 70.472ZM72.3187 70.472C69.2627 70.472 66.7466 67.7105 66.7466 64.3239C66.7466 60.9347 69.2136 58.1758 72.3187 58.1758C75.4444 58.1758 77.9398 60.958 77.8907 64.3239C77.8907 67.7131 75.4469 70.472 72.3187 70.472Z" fill="#fff"/></svg>