<svg width="124" height="125" viewBox="0 0 124 125" fill="none" xmlns="http://www.w3.org/2000/svg"><path fill-rule="evenodd" clip-rule="evenodd" d="M61.9999 124.999C96.2415 124.999 124 97.2402 124 62.9985C124 28.7569 96.2415 0.998535 61.9999 0.998535C27.7582 0.998535 -0.00012207 28.7569 -0.00012207 62.9985C-0.00012207 97.2402 27.7582 124.999 61.9999 124.999Z" fill="#1C275A"/><path d="M83.8011 43.9409L75.6152 82.5456C74.9971 85.2697 73.387 85.9478 71.0989 84.6652L58.6252 75.4737L52.6074 81.263C51.9409 81.9295 51.3848 82.4855 50.1002 82.4855L50.9973 69.7833L74.1136 48.8951C75.1192 48 73.8947 47.502 72.552 48.3991L43.9739 66.3946L31.6707 62.5428C28.995 61.7078 28.9466 59.8671 32.2287 58.5826L80.3504 40.0427C82.5785 39.2076 84.5277 40.5387 83.8011 43.9428V43.9409Z" fill="#fff"/></svg>