<svg width="124" height="124" viewBox="0 0 124 124" fill="none" xmlns="http://www.w3.org/2000/svg"><path fill-rule="evenodd" clip-rule="evenodd" d="M61.9991 123.998C96.2403 123.998 123.998 96.2404 123.998 61.9992C123.998 27.758 96.2403 0 61.9991 0C27.7579 0 -0.00012207 27.758 -0.00012207 61.9992C-0.00012207 96.2404 27.7579 123.998 61.9991 123.998Z" fill="#1C275A"/><path d="M70.8889 52.5386L85.7939 37.6336L90.4154 42.2584V28.4199H76.5769L81.1789 33.0186L65.4129 48.7878C63.7167 48.1597 61.907 47.897 60.1023 48.0167C58.2975 48.1365 56.5384 48.636 54.9401 49.4828C53.3418 50.3295 51.9404 51.5042 50.8276 52.9301C49.7147 54.356 48.9156 56.0008 48.4825 57.7569H40.58C39.8589 56.5152 38.7483 55.546 37.4203 54.9999C36.0923 54.4537 34.6212 54.361 33.2351 54.7361C31.849 55.1112 30.6255 55.9332 29.7542 57.0745C28.8829 58.2159 28.4126 59.6129 28.4162 61.0488C28.4198 62.4847 28.8971 63.8794 29.7741 65.0164C30.651 66.1534 31.8787 66.9692 33.2666 67.3374C34.6545 67.7056 36.1252 67.6055 37.4504 67.0527C38.7756 66.4999 39.8814 65.5252 40.5963 64.2799H48.4728C48.9032 66.0426 49.7021 67.6941 50.8169 69.1258C51.9316 70.5575 53.337 71.7369 54.9404 72.5864C56.5437 73.4358 58.3089 73.9361 60.1195 74.0542C61.9302 74.1724 63.7453 73.9057 65.4455 73.2718L81.1984 89.0247L76.5802 93.6495H90.4154V79.811L85.8167 84.413L70.9085 69.508C72.2135 68 73.1522 66.2107 73.6514 64.2799L80.6309 64.2962V70.8191L90.4154 61.0347L80.6309 51.2503V57.7732L73.6416 57.7569C73.1381 55.8287 72.196 54.0429 70.8889 52.5386Z" fill="#fff"/></svg>