<svg width="124" height="124" viewBox="0 0 124 124" fill="none" xmlns="http://www.w3.org/2000/svg"><path fill-rule="evenodd" clip-rule="evenodd" d="M62.0001 123.999C96.2416 123.999 124 96.2403 124 61.9988C124 27.7573 96.2416 -0.000976562 62.0001 -0.000976562C27.7586 -0.000976562 0.000366211 27.7573 0.000366211 61.9988C0.000366211 96.2403 27.7586 123.999 62.0001 123.999Z" fill="#1C275A"/><path d="M90.1806 39.4574V38.0484C90.1806 36.1798 89.4383 34.3878 88.1171 33.0665C86.7958 31.7452 85.0037 31.0029 83.1352 31.0029C81.2666 31.0029 79.4746 31.7452 78.1533 33.0665C76.832 34.3878 76.0898 36.1798 76.0898 38.0484V39.4574C74.5398 39.4574 73.2716 40.7256 73.2716 42.2756V53.5483C73.2716 55.0983 74.5398 56.3665 76.0898 56.3665H90.1806C91.7306 56.3665 92.9988 55.0983 92.9988 53.5483V42.2756C92.9988 40.7256 91.7306 39.4574 90.1806 39.4574ZM87.9261 39.4574H78.3443V38.0484C78.3443 35.3993 80.4861 33.2575 83.1352 33.2575C85.7843 33.2575 87.9261 35.3993 87.9261 38.0484V39.4574ZM81.5006 62.0028C81.6134 62.9328 81.7261 63.8628 81.7261 64.821C81.7261 70.6828 79.4716 76.0091 75.8079 80.0109C75.0752 77.7282 72.9898 76.0937 70.4534 76.0937H67.6352V67.6391C67.6352 66.0892 66.3671 64.821 64.8171 64.821H47.908V59.1846H53.5444C55.0944 59.1846 56.3626 57.9165 56.3626 56.3665V50.7301H61.9989C65.0989 50.7301 67.6352 48.1938 67.6352 45.0938V37.9356C64.958 37.0902 62.1398 36.6393 59.1807 36.6393C43.6244 36.6393 30.999 49.2647 30.999 64.821C30.999 80.3773 43.6244 93.0027 59.1807 93.0027C74.737 93.0027 87.3624 80.3773 87.3624 64.821C87.3624 63.8628 87.3061 62.9328 87.2215 62.0028H81.5006ZM56.3626 87.1691C45.2308 85.7882 36.6354 76.3191 36.6354 64.821C36.6354 63.0737 36.8608 61.411 37.2272 59.7765L50.7262 73.2755V76.0937C50.7262 79.1936 53.2626 81.73 56.3626 81.73V87.1691Z" fill="#fff"/></svg>