<svg width="124" height="124" viewBox="0 0 124 124" fill="none" xmlns="http://www.w3.org/2000/svg"><path fill-rule="evenodd" clip-rule="evenodd" d="M62.0001 123.999C96.2416 123.999 124 96.2403 124 61.9988C124 27.7573 96.2416 -0.000976562 62.0001 -0.000976562C27.7586 -0.000976562 0.000366211 27.7573 0.000366211 61.9988C0.000366211 96.2403 27.7586 123.999 62.0001 123.999Z" fill="#1C275A"/><path d="M93.0624 78.8125C94.4776 78.8125 95.6249 77.6652 95.6249 76.25C95.6249 74.8348 94.4776 73.6875 93.0624 73.6875C91.6471 73.6875 90.4999 74.8348 90.4999 76.25C90.4999 77.6652 91.6471 78.8125 93.0624 78.8125Z" fill="#fff"/><path d="M78.7483 101.875H67.4374V90.5642L80.337 77.6645C80.2797 77.1952 80.2506 76.7228 80.2499 76.25C80.2481 73.6552 81.0342 71.121 82.5043 68.9827C83.9743 66.8444 86.0589 65.2029 88.4823 64.2753C90.9057 63.3477 93.5536 63.1778 96.0756 63.7881C98.5977 64.3983 100.875 65.76 102.606 67.6928C104.338 69.6257 105.441 72.0387 105.771 74.6125C106.101 77.1863 105.641 79.7995 104.454 82.1065C103.266 84.4135 101.405 86.3054 99.1187 87.532C96.832 88.7585 94.2269 89.2619 91.6479 88.9754L78.7483 101.875ZM72.5624 96.75H76.6265L89.9669 83.4097L91.3506 83.7274C92.9979 84.1194 94.7281 83.963 96.2784 83.2821C97.8287 82.6012 99.1145 81.4329 99.9403 79.9547C100.766 78.4765 101.087 76.7692 100.854 75.092C100.621 73.4148 99.8476 71.8595 98.6503 70.6622C97.4529 69.4648 95.8976 68.691 94.2204 68.4581C92.5432 68.2253 90.8359 68.5462 89.3577 69.3721C87.8795 70.1979 86.7112 71.4837 86.0303 73.034C85.3494 74.5843 85.193 76.3145 85.585 77.9618L85.9028 79.3455L72.5624 92.6859V96.75Z" fill="#fff"/><path d="M44.3749 45.5H49.4999V66H44.3749V45.5Z" fill="#fff"/><path d="M34.1249 45.5H39.2499V66H34.1249V45.5Z" fill="#fff"/><path d="M75.1249 45.5H80.2499V60.875H75.1249V45.5Z" fill="#fff"/><path d="M64.8749 66H59.7499C58.3906 66 57.0871 65.46 56.126 64.4989C55.1648 63.5378 54.6249 62.2342 54.6249 60.875V50.625C54.6249 49.2658 55.1648 47.9622 56.126 47.0011C57.0871 46.04 58.3906 45.5 59.7499 45.5H64.8749C66.2341 45.5 67.5377 46.04 68.4988 47.0011C69.4599 47.9622 69.9999 49.2658 69.9999 50.625V60.875C69.9999 62.2342 69.4599 63.5378 68.4988 64.4989C67.5377 65.46 66.2341 66 64.8749 66ZM59.7499 60.875H64.8749V50.625H59.7499V60.875Z" fill="#fff"/><path d="M34.1249 71.125H39.2499V91.625H34.1249V71.125Z" fill="#fff"/><path d="M64.8749 71.125H69.9999V81.375H64.8749V71.125Z" fill="#fff"/><path d="M54.6249 91.625H49.4999C48.1406 91.625 46.8371 91.085 45.876 90.1239C44.9148 89.1628 44.3749 87.8592 44.3749 86.5V76.25C44.3749 74.8908 44.9148 73.5872 45.876 72.6261C46.8371 71.665 48.1406 71.125 49.4999 71.125H54.6249C55.9841 71.125 57.2877 71.665 58.2488 72.6261C59.2099 73.5872 59.7499 74.8908 59.7499 76.25V86.5C59.7499 87.8592 59.2099 89.1628 58.2488 90.1239C57.2877 91.085 55.9841 91.625 54.6249 91.625ZM49.4999 86.5H54.6249V76.25H49.4999V86.5Z" fill="#fff"/><path d="M34.1249 30.125H39.2499V40.375H34.1249V30.125Z" fill="#fff"/><path d="M64.8749 30.125H69.9999V40.375H64.8749V30.125Z" fill="#fff"/><path d="M75.1249 30.125H80.2499V40.375H75.1249V30.125Z" fill="#fff"/><path d="M54.6249 40.375H49.4999C48.1406 40.375 46.8371 39.835 45.876 38.8739C44.9148 37.9128 44.3749 36.6092 44.3749 35.25V30.125H49.4999V35.25H54.6249V30.125H59.7499V35.25C59.7499 36.6092 59.2099 37.9128 58.2488 38.8739C57.2877 39.835 55.9841 40.375 54.6249 40.375Z" fill="#fff"/></svg>