<svg width="55" height="48" viewBox="0 0 55 48" fill="none" xmlns="http://www.w3.org/2000/svg"><g clip-path="url(#clip0_553_17503)"><path d="M18.5397 33.0794C27.6743 33.0794 35.0794 25.6743 35.0794 16.5397C35.0794 7.40507 27.6743 0 18.5397 0C9.40507 0 2 7.40507 2 16.5397C2 25.6743 9.40507 33.0794 18.5397 33.0794Z" fill="#2C3E50"/><path opacity=".6" d="M22.3438 5.29267C22.6178 5.29267 22.84 5.07052 22.84 4.79648C22.84 4.52245 22.6178 4.30029 22.3438 4.30029C22.0697 4.30029 21.8476 4.52245 21.8476 4.79648C21.8476 5.07052 22.0697 5.29267 22.3438 5.29267Z" fill="#fff"/><path opacity=".2" d="M16.7203 4.30024C16.9944 4.30024 17.2165 4.07809 17.2165 3.80405C17.2165 3.53001 16.9944 3.30786 16.7203 3.30786C16.4463 3.30786 16.2242 3.53001 16.2242 3.80405C16.2242 4.07809 16.4463 4.30024 16.7203 4.30024Z" fill="#fff"/><path opacity=".6" d="M7.45811 12.2392C7.73214 12.2392 7.9543 12.0171 7.9543 11.743C7.9543 11.469 7.73214 11.2468 7.45811 11.2468C7.18407 11.2468 6.96191 11.469 6.96191 11.743C6.96191 12.0171 7.18407 12.2392 7.45811 12.2392Z" fill="#fff"/><path opacity=".3" d="M13.7432 28.1174C14.0172 28.1174 14.2394 27.8952 14.2394 27.6212C14.2394 27.3472 14.0172 27.125 13.7432 27.125C13.4692 27.125 13.247 27.3472 13.247 27.6212C13.247 27.8952 13.4692 28.1174 13.7432 28.1174Z" fill="#fff"/><path opacity=".4" d="M24.6594 27.456C24.9334 27.456 25.1556 27.2339 25.1556 26.9598C25.1556 26.6858 24.9334 26.4636 24.6594 26.4636C24.3854 26.4636 24.1632 26.6858 24.1632 26.9598C24.1632 27.2339 24.3854 27.456 24.6594 27.456Z" fill="#fff"/><path opacity=".6" d="M30.2828 20.84C30.5569 20.84 30.779 20.6179 30.779 20.3438C30.779 20.0698 30.5569 19.8477 30.2828 19.8477C30.0088 19.8477 29.7867 20.0698 29.7867 20.3438C29.7867 20.6179 30.0088 20.84 30.2828 20.84Z" fill="#fff"/><path d="M18.5397 24.8095C23.107 24.8095 26.8096 21.1069 26.8096 16.5396C26.8096 11.9723 23.107 8.26978 18.5397 8.26978C13.9724 8.26978 10.2699 11.9723 10.2699 16.5396C10.2699 21.1069 13.9724 24.8095 18.5397 24.8095Z" fill="#3B97D3"/><path opacity=".88" d="M26.4777 18.858C24.7335 21.7928 19.9102 23.9562 17.8354 24.7775C18.0676 24.7974 18.3022 24.8096 18.5397 24.8096C22.3018 24.8096 25.4751 22.2962 26.4777 18.858ZM24.4745 15.2166C24.495 12.6116 24.1284 12.5845 21.8281 12.901C20.7014 13.0562 19.709 13.4697 18.1894 14.2242L14.8814 17.2014C14.8814 17.2014 14.3727 16.2414 13.5583 17.5322C13.0105 18.4005 13.2275 19.1861 13.2275 19.1861C13.2275 19.1861 14.2198 18.0902 15.2122 17.8629C15.7041 17.7501 19.192 15.9089 19.1818 18.1937C19.1725 20.2629 15.28 23.0607 14.3919 23.6932C14.5219 23.7686 14.6538 23.8407 14.7881 23.9092C15.3419 23.8242 16.3151 23.541 17.8582 22.8252C20.1536 21.76 24.4513 18.1352 24.4745 15.2166Z" fill="#fff"/><path d="M26.4778 18.858C26.6979 18.1049 26.8096 17.3244 26.8096 16.5398C26.8096 12.4724 23.8721 9.0933 20.0035 8.40161C19.8818 8.45454 19.6221 8.5197 19.1818 8.60075C16.2943 9.13101 13.6099 10.875 11.9043 13.5627C11.5425 13.9761 11.2428 15.2166 11.2428 15.2166C11.2428 15.2166 11.1786 15.8782 11.5735 15.8782C11.9685 15.8782 11.6897 14.8263 12.2351 14.2242C12.7624 13.6427 13.8874 11.7817 15.5431 10.9163C16.6135 10.342 20.0399 9.50977 21.8282 10.9163C23.6763 12.3768 18.9572 9.57891 16.5216 13.2831C15.9099 14.2133 15.5037 12.6692 14.5507 13.2319C13.4852 13.8607 13.8686 14.0278 12.5659 16.8706C11.6116 18.9536 12.3638 20.9238 12.1263 21.7594C12.7589 22.5353 13.5266 23.1904 14.3922 23.6932C15.2804 23.0607 19.1725 20.2629 19.1821 18.1938C19.1924 15.9093 15.7045 17.7502 15.2126 17.863C14.2202 18.0902 13.2278 19.1862 13.2278 19.1862C13.2278 19.1862 13.0108 18.4005 13.5586 17.5322C14.3731 16.2414 14.8818 17.2014 14.8818 17.2014C14.8818 17.2014 16.6701 14.9788 18.1898 14.2242C19.7094 13.4697 20.7018 13.0562 21.8285 12.9011C24.1288 12.5845 24.4957 12.6116 24.4748 15.2166C24.4517 18.1352 20.154 21.7601 17.859 22.8249C16.3155 23.5411 15.3426 23.8239 14.7889 23.9089C15.7386 24.3933 16.7734 24.6882 17.8358 24.7772C19.9102 23.9562 24.7335 21.7928 26.4778 18.858Z" fill="#3B97D3"/><path opacity=".88" d="M12.5659 16.8704C13.8686 14.0276 13.4852 13.8605 14.5507 13.2317C15.504 12.669 15.9099 14.2132 16.5215 13.283C18.9572 9.57873 23.6763 12.3766 21.8281 10.9161C20.0399 9.50959 16.6135 10.3419 15.5431 10.9161C13.8874 11.7815 12.7624 13.6425 12.2351 14.2241C11.6896 14.8261 11.9685 15.878 11.5735 15.878L11.2427 15.2164C11.2427 15.2164 11.5424 13.976 11.9043 13.5625C13.6099 10.8748 16.2943 9.13083 19.1818 8.60057C19.6221 8.51986 19.8818 8.45436 20.0035 8.40143C19.5204 8.31454 19.0306 8.27048 18.5397 8.26978C13.9725 8.26978 10.2699 11.9724 10.2699 16.5396C10.2673 18.4417 10.9232 20.286 12.1263 21.7592C12.3641 20.9236 11.6116 18.9534 12.5659 16.8704Z" fill="#fff"/></g><path d="M41.3878 10.4545H38.767V20.3693H38.6392L31.7926 10.4545H29.4347V25H32.0696V15.0923H32.1903L39.044 25H41.3878V10.4545ZM43.7589 25H53.2759V22.7912H46.3938V18.821H52.729V16.6122H46.3938V12.6634H53.2191V10.4545H43.7589V25Z" fill="#fff"/><path d="M6.36364 45C10.7955 45 13.4233 42.2585 13.4233 37.7131C13.4233 33.1818 10.7955 30.4545 6.46307 30.4545H1.43466V45H6.36364ZM4.0696 42.7202V32.7344H6.31392C9.26847 32.7344 10.8097 34.3821 10.8097 37.7131C10.8097 41.0582 9.26847 42.7202 6.2358 42.7202H4.0696ZM16.5135 45L17.7138 41.4134H23.1825L24.3899 45H27.2024L22.0746 30.4545H18.8217L13.701 45H16.5135ZM18.424 39.2969L20.3913 33.4375H20.505L22.4723 39.2969H18.424ZM36.2887 34.4531H38.8242C38.7745 31.9957 36.6793 30.2557 33.5827 30.2557C30.5288 30.2557 28.2347 31.9744 28.2418 34.5455C28.2418 36.6335 29.7262 37.8338 32.1197 38.4517L33.7745 38.8778C35.3441 39.2756 36.381 39.7656 36.3881 40.8949C36.381 42.1378 35.2021 42.9688 33.4833 42.9688C31.8356 42.9688 30.5572 42.2301 30.4506 40.7031H27.8583C27.9648 43.5938 30.1168 45.2202 33.5046 45.2202C36.9918 45.2202 39.016 43.4801 39.0231 40.9162C39.016 38.3949 36.935 37.2443 34.7475 36.7259L33.3839 36.3849C32.1907 36.1009 30.8981 35.5966 30.9123 34.3821C30.9194 33.2884 31.8995 32.4858 33.5472 32.4858C35.1168 32.4858 36.1538 33.2173 36.2887 34.4531ZM40.8722 45H43.5071V38.821H50.2472V45H52.8892V30.4545H50.2472V36.6122H43.5071V30.4545H40.8722V45Z" fill="#fff"/><defs><clipPath id="clip0_553_17503"><path fill="#fff" transform="translate(2)" d="M0 0H33V33H0z"/></clipPath></defs></svg>