<svg xmlns="http://www.w3.org/2000/svg" style="border: 0 !important; clip: rect(0 0 0 0) !important; height: 1px !important; margin: -1px !important; overflow: hidden !important; padding: 0 !important; position: absolute !important; width: 1px !important;" class="root-svg-symbols-element">
  <defs>
      <clipPath id="clip0_698_1598"><path fill="#fff" transform="translate(3 4)" d="M0 0H26V24H0z"/></clipPath>
<clipPath id="clip0_553_17503"><path fill="#fff" transform="translate(2)" d="M0 0H33V33H0z"/></clipPath>
  </defs>
    <symbol id="arrow-right" viewBox="0 0 16 14">
      <path fill-rule="evenodd" clip-rule="evenodd" d="M0.999878 7.99997H12.1699L8.28988 11.88C7.89988 12.27 7.89988 12.91 8.28988 13.3C8.67988 13.69 9.30988 13.69 9.69988 13.3L15.2899 7.70997C15.6799 7.31997 15.6799 6.68997 15.2899 6.29997L9.70988 0.699971C9.31988 0.309971 8.68988 0.309971 8.29988 0.699971C7.90988 1.08997 7.90988 1.71997 8.29988 2.10997L12.1699 5.99997H0.999878C0.449878 5.99997 -0.00012207 6.44997 -0.00012207 6.99997C-0.00012207 7.54997 0.449878 7.99997 0.999878 7.99997Z" fill="#fff"/>
    </symbol>
    <symbol id="burger-icon" viewBox="0 0 32 32">
      <path d="M5 26H27V24H5V26Z" fill="currentColor"/><path d="M5 17H27V15H5V17Z" fill="currentColor"/><path d="M5 8H27V6H5V8Z" fill="currentColor"/>
    </symbol>
    <symbol id="close-icon" viewBox="0 0 32 32">
      <g clip-path="url(#clip0_698_1598)"><path d="M19.4597 15.6121L28.609 6.34899C28.8606 6.094 28.9994 5.7538 28.9999 5.39105C28.9999 5.02811 28.861 4.68751 28.609 4.43292L27.8072 3.62141C27.555 3.36581 27.219 3.22583 26.8604 3.22583C26.5024 3.22583 26.1663 3.36581 25.9141 3.62141L16.765 12.8839L7.61537 3.62141C7.36371 3.36581 7.02748 3.22583 6.66897 3.22583C6.31088 3.22583 5.97465 3.36581 5.72298 3.62141L4.92083 4.43292C4.39879 4.96143 4.39879 5.82108 4.92083 6.34899L14.0702 15.6121L4.92083 24.8749C4.66896 25.1302 4.53029 25.4704 4.53029 25.8332C4.53029 26.196 4.66896 26.5362 4.92083 26.7914L5.72279 27.6029C5.97445 27.8582 6.31088 27.9985 6.66878 27.9985C7.02729 27.9985 7.36351 27.8582 7.61518 27.6029L16.7648 18.3401L25.914 27.6029C26.166 27.8582 26.502 27.9985 26.8602 27.9985H26.8605C27.2189 27.9985 27.5549 27.8582 27.8069 27.6029L28.6088 26.7914C28.8604 26.5363 28.9993 26.196 28.9993 25.8332C28.9993 25.4704 28.8604 25.1302 28.6088 24.8751L19.4597 15.6121Z" fill="#fff"/></g>
    </symbol>
    <symbol id="email-icon" viewBox="0 0 20 16">
      <path fill-rule="evenodd" clip-rule="evenodd" d="M18 0H2C0.9 0 0.01 0.9 0.01 2L0 14C0 15.1 0.9 16 2 16H18C19.1 16 20 15.1 20 14V2C20 0.9 19.1 0 18 0ZM17.6 4.25L10.53 8.67C10.21 8.87 9.79 8.87 9.47 8.67L2.4 4.25C2.15 4.09 2 3.82 2 3.53C2 2.86 2.73 2.46 3.3 2.81L10 7L16.7 2.81C17.27 2.46 18 2.86 18 3.53C18 3.82 17.85 4.09 17.6 4.25Z" fill="currentColor"/>
    </symbol>
    <symbol id="facebook-icon" viewBox="0 0 24 24">
      <path fill-rule="evenodd" clip-rule="evenodd" d="M13.4914 21V12.79H16.4386L16.8807 9.58941H13.4914V7.54633C13.4914 6.61998 13.7655 5.98869 15.1883 5.98869L17 5.98799V3.12531C16.6867 3.08725 15.6112 3 14.3595 3C11.7456 3 9.9561 4.49127 9.9561 7.22935V9.58941H7V12.79H9.9561V21H13.4914Z" fill="currentColor"/>
    </symbol>
    <symbol id="feature-icon-1" viewBox="0 0 124 125">
      <path fill-rule="evenodd" clip-rule="evenodd" d="M61.9999 124.999C96.2415 124.999 124 97.2402 124 62.9985C124 28.7569 96.2415 0.998535 61.9999 0.998535C27.7582 0.998535 -0.00012207 28.7569 -0.00012207 62.9985C-0.00012207 97.2402 27.7582 124.999 61.9999 124.999Z" fill="#1C275A"/><path d="M83.8011 43.9409L75.6152 82.5456C74.9971 85.2697 73.387 85.9478 71.0989 84.6652L58.6252 75.4737L52.6074 81.263C51.9409 81.9295 51.3848 82.4855 50.1002 82.4855L50.9973 69.7833L74.1136 48.8951C75.1192 48 73.8947 47.502 72.552 48.3991L43.9739 66.3946L31.6707 62.5428C28.995 61.7078 28.9466 59.8671 32.2287 58.5826L80.3504 40.0427C82.5785 39.2076 84.5277 40.5387 83.8011 43.9428V43.9409Z" fill="#fff"/>
    </symbol>
    <symbol id="feature-icon-2" viewBox="0 0 124 124">
      <path fill-rule="evenodd" clip-rule="evenodd" d="M62.0001 123.999C96.2416 123.999 124 96.2403 124 61.9988C124 27.7573 96.2416 -0.000976562 62.0001 -0.000976562C27.7586 -0.000976562 0.000366211 27.7573 0.000366211 61.9988C0.000366211 96.2403 27.7586 123.999 62.0001 123.999Z" fill="#1C275A"/><path d="M93.0624 78.8125C94.4776 78.8125 95.6249 77.6652 95.6249 76.25C95.6249 74.8348 94.4776 73.6875 93.0624 73.6875C91.6471 73.6875 90.4999 74.8348 90.4999 76.25C90.4999 77.6652 91.6471 78.8125 93.0624 78.8125Z" fill="#fff"/><path d="M78.7483 101.875H67.4374V90.5642L80.337 77.6645C80.2797 77.1952 80.2506 76.7228 80.2499 76.25C80.2481 73.6552 81.0342 71.121 82.5043 68.9827C83.9743 66.8444 86.0589 65.2029 88.4823 64.2753C90.9057 63.3477 93.5536 63.1778 96.0756 63.7881C98.5977 64.3983 100.875 65.76 102.606 67.6928C104.338 69.6257 105.441 72.0387 105.771 74.6125C106.101 77.1863 105.641 79.7995 104.454 82.1065C103.266 84.4135 101.405 86.3054 99.1187 87.532C96.832 88.7585 94.2269 89.2619 91.6479 88.9754L78.7483 101.875ZM72.5624 96.75H76.6265L89.9669 83.4097L91.3506 83.7274C92.9979 84.1194 94.7281 83.963 96.2784 83.2821C97.8287 82.6012 99.1145 81.4329 99.9403 79.9547C100.766 78.4765 101.087 76.7692 100.854 75.092C100.621 73.4148 99.8476 71.8595 98.6503 70.6622C97.4529 69.4648 95.8976 68.691 94.2204 68.4581C92.5432 68.2253 90.8359 68.5462 89.3577 69.3721C87.8795 70.1979 86.7112 71.4837 86.0303 73.034C85.3494 74.5843 85.193 76.3145 85.585 77.9618L85.9028 79.3455L72.5624 92.6859V96.75Z" fill="#fff"/><path d="M44.3749 45.5H49.4999V66H44.3749V45.5Z" fill="#fff"/><path d="M34.1249 45.5H39.2499V66H34.1249V45.5Z" fill="#fff"/><path d="M75.1249 45.5H80.2499V60.875H75.1249V45.5Z" fill="#fff"/><path d="M64.8749 66H59.7499C58.3906 66 57.0871 65.46 56.126 64.4989C55.1648 63.5378 54.6249 62.2342 54.6249 60.875V50.625C54.6249 49.2658 55.1648 47.9622 56.126 47.0011C57.0871 46.04 58.3906 45.5 59.7499 45.5H64.8749C66.2341 45.5 67.5377 46.04 68.4988 47.0011C69.4599 47.9622 69.9999 49.2658 69.9999 50.625V60.875C69.9999 62.2342 69.4599 63.5378 68.4988 64.4989C67.5377 65.46 66.2341 66 64.8749 66ZM59.7499 60.875H64.8749V50.625H59.7499V60.875Z" fill="#fff"/><path d="M34.1249 71.125H39.2499V91.625H34.1249V71.125Z" fill="#fff"/><path d="M64.8749 71.125H69.9999V81.375H64.8749V71.125Z" fill="#fff"/><path d="M54.6249 91.625H49.4999C48.1406 91.625 46.8371 91.085 45.876 90.1239C44.9148 89.1628 44.3749 87.8592 44.3749 86.5V76.25C44.3749 74.8908 44.9148 73.5872 45.876 72.6261C46.8371 71.665 48.1406 71.125 49.4999 71.125H54.6249C55.9841 71.125 57.2877 71.665 58.2488 72.6261C59.2099 73.5872 59.7499 74.8908 59.7499 76.25V86.5C59.7499 87.8592 59.2099 89.1628 58.2488 90.1239C57.2877 91.085 55.9841 91.625 54.6249 91.625ZM49.4999 86.5H54.6249V76.25H49.4999V86.5Z" fill="#fff"/><path d="M34.1249 30.125H39.2499V40.375H34.1249V30.125Z" fill="#fff"/><path d="M64.8749 30.125H69.9999V40.375H64.8749V30.125Z" fill="#fff"/><path d="M75.1249 30.125H80.2499V40.375H75.1249V30.125Z" fill="#fff"/><path d="M54.6249 40.375H49.4999C48.1406 40.375 46.8371 39.835 45.876 38.8739C44.9148 37.9128 44.3749 36.6092 44.3749 35.25V30.125H49.4999V35.25H54.6249V30.125H59.7499V35.25C59.7499 36.6092 59.2099 37.9128 58.2488 38.8739C57.2877 39.835 55.9841 40.375 54.6249 40.375Z" fill="#fff"/>
    </symbol>
    <symbol id="feature-icon-3" viewBox="0 0 124 124">
      <path fill-rule="evenodd" clip-rule="evenodd" d="M61.9996 123.998C96.2408 123.998 123.999 96.2404 123.999 61.9992C123.999 27.758 96.2408 0 61.9996 0C27.7584 0 0.000366211 27.758 0.000366211 61.9992C0.000366211 96.2404 27.7584 123.998 61.9996 123.998Z" fill="#1C275A"/><path d="M83.4834 42.6093C79.531 40.8269 75.2945 39.5094 70.8643 38.7603C70.8248 38.7527 70.784 38.7576 70.7474 38.7743C70.7109 38.7909 70.6804 38.8186 70.6602 38.8533C70.1177 39.8065 69.5133 41.049 69.0896 42.0307C64.391 41.3286 59.6141 41.3286 54.9155 42.0307C54.4436 40.9428 53.9115 39.882 53.3216 38.8533C53.3016 38.8181 53.2714 38.7899 53.2349 38.7723C53.1984 38.7548 53.1575 38.7488 53.1175 38.7551C48.6899 39.5043 44.4534 40.8217 40.4985 42.6067C40.4645 42.621 40.4356 42.6453 40.4158 42.6765C32.3768 54.4947 30.1733 66.0211 31.2557 77.4028C31.2587 77.4307 31.2674 77.4576 31.2811 77.482C31.2949 77.5065 31.3135 77.5278 31.3358 77.5449C36.0279 80.961 41.2614 83.5633 46.817 85.2429C46.8558 85.2548 46.8972 85.2548 46.9359 85.2428C46.9746 85.2308 47.0088 85.2074 47.034 85.1757C48.2275 83.5741 49.2918 81.8821 50.2011 80.1048C50.2553 80.0015 50.2037 79.8775 50.0952 79.8362C48.4264 79.2077 46.8095 78.4494 45.2594 77.5681C45.2315 77.5522 45.208 77.5296 45.1911 77.5024C45.1741 77.4752 45.1641 77.4442 45.1621 77.4122C45.16 77.3802 45.1659 77.3482 45.1793 77.319C45.1927 77.2899 45.2131 77.2645 45.2387 77.2452C45.5642 77.005 45.8897 76.7544 46.1997 76.5038C46.2276 76.4813 46.2612 76.4669 46.2967 76.4624C46.3323 76.4578 46.3685 76.4632 46.4012 76.478C56.5455 81.0348 67.5319 81.0348 77.5574 76.478C77.5902 76.4623 77.6267 76.4562 77.6628 76.4603C77.6989 76.4644 77.7331 76.4786 77.7615 76.5012C78.0715 76.7544 78.3944 77.005 78.7225 77.2452C78.7483 77.2641 78.7691 77.2891 78.7829 77.318C78.7967 77.347 78.8031 77.3788 78.8015 77.4108C78.8 77.4428 78.7906 77.4739 78.7741 77.5014C78.7576 77.5288 78.7345 77.5517 78.707 77.5681C77.1622 78.4567 75.5554 79.2084 73.8686 79.8336C73.8427 79.843 73.8191 79.8578 73.7994 79.8771C73.7796 79.8963 73.7643 79.9196 73.7542 79.9452C73.7442 79.9709 73.7398 79.9984 73.7412 80.0259C73.7427 80.0535 73.75 80.0804 73.7627 80.1048C74.6926 81.8795 75.7569 83.5689 76.9271 85.1731C76.9515 85.206 76.9853 85.2306 77.0242 85.2436C77.063 85.2565 77.1049 85.2572 77.1441 85.2454C82.7093 83.5706 87.9513 80.967 92.6486 77.5449C92.6716 77.5288 92.6908 77.5081 92.705 77.484C92.7193 77.46 92.7282 77.4332 92.7313 77.4054C94.0229 64.2464 90.5666 52.8131 83.5634 42.6816C83.5463 42.6487 83.5178 42.6231 83.4834 42.6093ZM51.7174 70.472C48.6641 70.472 46.1454 67.7105 46.1454 64.3239C46.1454 60.9347 48.615 58.1758 51.7174 58.1758C54.8431 58.1758 57.3385 60.958 57.2894 64.3239C57.2894 67.7131 54.8199 70.472 51.7174 70.472ZM72.3187 70.472C69.2627 70.472 66.7466 67.7105 66.7466 64.3239C66.7466 60.9347 69.2136 58.1758 72.3187 58.1758C75.4444 58.1758 77.9398 60.958 77.8907 64.3239C77.8907 67.7131 75.4469 70.472 72.3187 70.472Z" fill="#fff"/>
    </symbol>
    <symbol id="feature-icon-4" viewBox="0 0 124 124">
      <path fill-rule="evenodd" clip-rule="evenodd" d="M61.9991 123.998C96.2403 123.998 123.998 96.2404 123.998 61.9992C123.998 27.758 96.2403 0 61.9991 0C27.7579 0 -0.00012207 27.758 -0.00012207 61.9992C-0.00012207 96.2404 27.7579 123.998 61.9991 123.998Z" fill="#1C275A"/><path d="M70.8889 52.5386L85.7939 37.6336L90.4154 42.2584V28.4199H76.5769L81.1789 33.0186L65.4129 48.7878C63.7167 48.1597 61.907 47.897 60.1023 48.0167C58.2975 48.1365 56.5384 48.636 54.9401 49.4828C53.3418 50.3295 51.9404 51.5042 50.8276 52.9301C49.7147 54.356 48.9156 56.0008 48.4825 57.7569H40.58C39.8589 56.5152 38.7483 55.546 37.4203 54.9999C36.0923 54.4537 34.6212 54.361 33.2351 54.7361C31.849 55.1112 30.6255 55.9332 29.7542 57.0745C28.8829 58.2159 28.4126 59.6129 28.4162 61.0488C28.4198 62.4847 28.8971 63.8794 29.7741 65.0164C30.651 66.1534 31.8787 66.9692 33.2666 67.3374C34.6545 67.7056 36.1252 67.6055 37.4504 67.0527C38.7756 66.4999 39.8814 65.5252 40.5963 64.2799H48.4728C48.9032 66.0426 49.7021 67.6941 50.8169 69.1258C51.9316 70.5575 53.337 71.7369 54.9404 72.5864C56.5437 73.4358 58.3089 73.9361 60.1195 74.0542C61.9302 74.1724 63.7453 73.9057 65.4455 73.2718L81.1984 89.0247L76.5802 93.6495H90.4154V79.811L85.8167 84.413L70.9085 69.508C72.2135 68 73.1522 66.2107 73.6514 64.2799L80.6309 64.2962V70.8191L90.4154 61.0347L80.6309 51.2503V57.7732L73.6416 57.7569C73.1381 55.8287 72.196 54.0429 70.8889 52.5386Z" fill="#fff"/>
    </symbol>
    <symbol id="feature-icon-5" viewBox="0 0 124 124">
      <path fill-rule="evenodd" clip-rule="evenodd" d="M61.9996 123.998C96.2408 123.998 123.999 96.2404 123.999 61.9992C123.999 27.758 96.2408 0 61.9996 0C27.7584 0 0.000366211 27.758 0.000366211 61.9992C0.000366211 96.2404 27.7584 123.998 61.9996 123.998Z" fill="#1C275A"/><path d="M59.5415 65.4585C58.9564 65.4585 58.3845 65.632 57.898 65.9571C57.4115 66.2821 57.0323 66.7442 56.8084 67.2847C56.5845 67.8253 56.5259 68.4201 56.6401 68.994C56.7542 69.5678 57.036 70.095 57.4497 70.5087C57.8634 70.9224 58.3905 71.2042 58.9644 71.3183C59.5383 71.4325 60.1331 71.3739 60.6737 71.15C61.2142 70.9261 61.6762 70.5469 62.0013 70.0604C62.3264 69.5739 62.4999 69.0019 62.4999 68.4168C62.4999 67.6322 62.1882 66.8798 61.6334 66.325C61.0786 65.7702 60.3261 65.4585 59.5415 65.4585ZM47.7082 65.4585C47.1231 65.4585 46.5511 65.632 46.0647 65.9571C45.5782 66.2821 45.199 66.7442 44.9751 67.2847C44.7512 67.8253 44.6926 68.4201 44.8067 68.994C44.9209 69.5678 45.2026 70.095 45.6164 70.5087C46.0301 70.9224 46.5572 71.2042 47.1311 71.3183C47.7049 71.4325 48.2998 71.3739 48.8403 71.15C49.3809 70.9261 49.8429 70.5469 50.168 70.0604C50.493 69.5739 50.6665 69.0019 50.6665 68.4168C50.6665 67.6322 50.3549 66.8798 49.8001 66.325C49.2453 65.7702 48.4928 65.4585 47.7082 65.4585ZM92.0832 38.8335C92.0832 36.4797 91.1482 34.2223 89.4838 32.5579C87.8194 30.8935 85.562 29.9585 83.2082 29.9585H41.7915C39.4377 29.9585 37.1804 30.8935 35.516 32.5579C33.8516 34.2223 32.9165 36.4797 32.9165 38.8335V50.6668C32.9296 52.8562 33.7514 54.9634 35.224 56.5835C33.7514 58.2036 32.9296 60.3108 32.9165 62.5002V74.3335C32.9165 76.6873 33.8516 78.9447 35.516 80.6091C37.1804 82.2734 39.4377 83.2085 41.7915 83.2085H59.5415V89.1252H35.8749C35.0903 89.1252 34.3378 89.4368 33.783 89.9916C33.2282 90.5464 32.9165 91.2989 32.9165 92.0835C32.9165 92.8681 33.2282 93.6206 33.783 94.1753C34.3378 94.7301 35.0903 95.0418 35.8749 95.0418H89.1249C89.9095 95.0418 90.6619 94.7301 91.2167 94.1753C91.7715 93.6206 92.0832 92.8681 92.0832 92.0835C92.0832 91.2989 91.7715 90.5464 91.2167 89.9916C90.6619 89.4368 89.9095 89.1252 89.1249 89.1252H65.4582V83.2085H83.2082C85.562 83.2085 87.8194 82.2734 89.4838 80.6091C91.1482 78.9447 92.0832 76.6873 92.0832 74.3335V62.5002C92.0702 60.3108 91.2483 58.2036 89.7757 56.5835C91.2483 54.9634 92.0702 52.8562 92.0832 50.6668V38.8335ZM86.1665 74.3335C86.1665 75.1181 85.8549 75.8706 85.3001 76.4254C84.7453 76.9801 83.9928 77.2918 83.2082 77.2918H41.7915C41.0069 77.2918 40.2545 76.9801 39.6997 76.4254C39.1449 75.8706 38.8332 75.1181 38.8332 74.3335V62.5002C38.8332 61.7156 39.1449 60.9631 39.6997 60.4083C40.2545 59.8535 41.0069 59.5418 41.7915 59.5418H83.2082C83.9928 59.5418 84.7453 59.8535 85.3001 60.4083C85.8549 60.9631 86.1665 61.7156 86.1665 62.5002V74.3335ZM86.1665 50.6668C86.1665 51.4514 85.8549 52.2039 85.3001 52.7587C84.7453 53.3135 83.9928 53.6252 83.2082 53.6252H41.7915C41.0069 53.6252 40.2545 53.3135 39.6997 52.7587C39.1449 52.2039 38.8332 51.4514 38.8332 50.6668V38.8335C38.8332 38.0489 39.1449 37.2964 39.6997 36.7416C40.2545 36.1868 41.0069 35.8752 41.7915 35.8752H83.2082C83.9928 35.8752 84.7453 36.1868 85.3001 36.7416C85.8549 37.2964 86.1665 38.0489 86.1665 38.8335V50.6668ZM59.5415 41.7918C58.9564 41.7918 58.3845 41.9653 57.898 42.2904C57.4115 42.6155 57.0323 43.0775 56.8084 43.6181C56.5845 44.1586 56.5259 44.7534 56.6401 45.3273C56.7542 45.9012 57.036 46.4283 57.4497 46.842C57.8634 47.2557 58.3905 47.5375 58.9644 47.6517C59.5383 47.7658 60.1331 47.7072 60.6737 47.4833C61.2142 47.2594 61.6762 46.8802 62.0013 46.3937C62.3264 45.9072 62.4999 45.3353 62.4999 44.7502C62.4999 43.9656 62.1882 43.2131 61.6334 42.6583C61.0786 42.1035 60.3261 41.7918 59.5415 41.7918ZM47.7082 41.7918C47.1231 41.7918 46.5511 41.9653 46.0647 42.2904C45.5782 42.6155 45.199 43.0775 44.9751 43.6181C44.7512 44.1586 44.6926 44.7534 44.8067 45.3273C44.9209 45.9012 45.2026 46.4283 45.6164 46.842C46.0301 47.2557 46.5572 47.5375 47.1311 47.6517C47.7049 47.7658 48.2998 47.7072 48.8403 47.4833C49.3809 47.2594 49.8429 46.8802 50.168 46.3937C50.493 45.9072 50.6665 45.3353 50.6665 44.7502C50.6665 43.9656 50.3549 43.2131 49.8001 42.6583C49.2453 42.1035 48.4928 41.7918 47.7082 41.7918Z" fill="#fff"/>
    </symbol>
    <symbol id="feature-icon-6" viewBox="0 0 124 124">
      <path fill-rule="evenodd" clip-rule="evenodd" d="M62.0001 123.999C96.2416 123.999 124 96.2403 124 61.9988C124 27.7573 96.2416 -0.000976562 62.0001 -0.000976562C27.7586 -0.000976562 0.000366211 27.7573 0.000366211 61.9988C0.000366211 96.2403 27.7586 123.999 62.0001 123.999Z" fill="#1C275A"/><path d="M90.1806 39.4574V38.0484C90.1806 36.1798 89.4383 34.3878 88.1171 33.0665C86.7958 31.7452 85.0037 31.0029 83.1352 31.0029C81.2666 31.0029 79.4746 31.7452 78.1533 33.0665C76.832 34.3878 76.0898 36.1798 76.0898 38.0484V39.4574C74.5398 39.4574 73.2716 40.7256 73.2716 42.2756V53.5483C73.2716 55.0983 74.5398 56.3665 76.0898 56.3665H90.1806C91.7306 56.3665 92.9988 55.0983 92.9988 53.5483V42.2756C92.9988 40.7256 91.7306 39.4574 90.1806 39.4574ZM87.9261 39.4574H78.3443V38.0484C78.3443 35.3993 80.4861 33.2575 83.1352 33.2575C85.7843 33.2575 87.9261 35.3993 87.9261 38.0484V39.4574ZM81.5006 62.0028C81.6134 62.9328 81.7261 63.8628 81.7261 64.821C81.7261 70.6828 79.4716 76.0091 75.8079 80.0109C75.0752 77.7282 72.9898 76.0937 70.4534 76.0937H67.6352V67.6391C67.6352 66.0892 66.3671 64.821 64.8171 64.821H47.908V59.1846H53.5444C55.0944 59.1846 56.3626 57.9165 56.3626 56.3665V50.7301H61.9989C65.0989 50.7301 67.6352 48.1938 67.6352 45.0938V37.9356C64.958 37.0902 62.1398 36.6393 59.1807 36.6393C43.6244 36.6393 30.999 49.2647 30.999 64.821C30.999 80.3773 43.6244 93.0027 59.1807 93.0027C74.737 93.0027 87.3624 80.3773 87.3624 64.821C87.3624 63.8628 87.3061 62.9328 87.2215 62.0028H81.5006ZM56.3626 87.1691C45.2308 85.7882 36.6354 76.3191 36.6354 64.821C36.6354 63.0737 36.8608 61.411 37.2272 59.7765L50.7262 73.2755V76.0937C50.7262 79.1936 53.2626 81.73 56.3626 81.73V87.1691Z" fill="#fff"/>
    </symbol>
    <symbol id="google-icon" viewBox="0 0 24 24">
      <path fill-rule="evenodd" clip-rule="evenodd" d="M18.8751 10.6027H12.1479C12.1479 11.3023 12.1479 12.7015 12.1436 13.4011H16.0418C15.8925 14.1007 15.3628 15.0802 14.6145 15.5734C14.6138 15.5727 14.6131 15.5776 14.6116 15.5769C13.6167 16.2338 12.3037 16.3829 11.3288 16.187C9.80069 15.8833 8.59134 14.7752 8.10032 13.3675C8.10317 13.3654 8.10532 13.3459 8.10746 13.3445C7.80012 12.4714 7.80012 11.3023 8.10746 10.6027H8.10675C8.50272 9.31683 9.74851 8.14359 11.2788 7.82247C12.5096 7.56152 13.8983 7.84416 14.9197 8.79982C15.0555 8.6669 16.7995 6.96405 16.9303 6.82553C13.4409 3.66541 7.85373 4.77708 5.7631 8.85789H5.76239C5.76239 8.85789 5.7631 8.85789 5.75882 8.86558C4.72458 10.87 4.76747 13.2318 5.76596 15.1404C5.7631 15.1425 5.76096 15.1438 5.75882 15.1459C6.66368 16.902 8.31045 18.2487 10.2946 18.7615C12.4024 19.3142 15.0848 18.9364 16.8817 17.3112C16.8824 17.3119 16.8831 17.3126 16.8838 17.3133C18.4062 15.9421 19.354 13.6061 18.8751 10.6027Z" fill="currentColor"/>
    </symbol>
    <symbol id="logo" viewBox="0 0 55 48">
      <g clip-path="url(#clip0_553_17503)"><path d="M18.5397 33.0794C27.6743 33.0794 35.0794 25.6743 35.0794 16.5397C35.0794 7.40507 27.6743 0 18.5397 0C9.40507 0 2 7.40507 2 16.5397C2 25.6743 9.40507 33.0794 18.5397 33.0794Z" fill="#2C3E50"/><path opacity=".6" d="M22.3438 5.29267C22.6178 5.29267 22.84 5.07052 22.84 4.79648C22.84 4.52245 22.6178 4.30029 22.3438 4.30029C22.0697 4.30029 21.8476 4.52245 21.8476 4.79648C21.8476 5.07052 22.0697 5.29267 22.3438 5.29267Z" fill="#fff"/><path opacity=".2" d="M16.7203 4.30024C16.9944 4.30024 17.2165 4.07809 17.2165 3.80405C17.2165 3.53001 16.9944 3.30786 16.7203 3.30786C16.4463 3.30786 16.2242 3.53001 16.2242 3.80405C16.2242 4.07809 16.4463 4.30024 16.7203 4.30024Z" fill="#fff"/><path opacity=".6" d="M7.45811 12.2392C7.73214 12.2392 7.9543 12.0171 7.9543 11.743C7.9543 11.469 7.73214 11.2468 7.45811 11.2468C7.18407 11.2468 6.96191 11.469 6.96191 11.743C6.96191 12.0171 7.18407 12.2392 7.45811 12.2392Z" fill="#fff"/><path opacity=".3" d="M13.7432 28.1174C14.0172 28.1174 14.2394 27.8952 14.2394 27.6212C14.2394 27.3472 14.0172 27.125 13.7432 27.125C13.4692 27.125 13.247 27.3472 13.247 27.6212C13.247 27.8952 13.4692 28.1174 13.7432 28.1174Z" fill="#fff"/><path opacity=".4" d="M24.6594 27.456C24.9334 27.456 25.1556 27.2339 25.1556 26.9598C25.1556 26.6858 24.9334 26.4636 24.6594 26.4636C24.3854 26.4636 24.1632 26.6858 24.1632 26.9598C24.1632 27.2339 24.3854 27.456 24.6594 27.456Z" fill="#fff"/><path opacity=".6" d="M30.2828 20.84C30.5569 20.84 30.779 20.6179 30.779 20.3438C30.779 20.0698 30.5569 19.8477 30.2828 19.8477C30.0088 19.8477 29.7867 20.0698 29.7867 20.3438C29.7867 20.6179 30.0088 20.84 30.2828 20.84Z" fill="#fff"/><path d="M18.5397 24.8095C23.107 24.8095 26.8096 21.1069 26.8096 16.5396C26.8096 11.9723 23.107 8.26978 18.5397 8.26978C13.9724 8.26978 10.2699 11.9723 10.2699 16.5396C10.2699 21.1069 13.9724 24.8095 18.5397 24.8095Z" fill="#3B97D3"/><path opacity=".88" d="M26.4777 18.858C24.7335 21.7928 19.9102 23.9562 17.8354 24.7775C18.0676 24.7974 18.3022 24.8096 18.5397 24.8096C22.3018 24.8096 25.4751 22.2962 26.4777 18.858ZM24.4745 15.2166C24.495 12.6116 24.1284 12.5845 21.8281 12.901C20.7014 13.0562 19.709 13.4697 18.1894 14.2242L14.8814 17.2014C14.8814 17.2014 14.3727 16.2414 13.5583 17.5322C13.0105 18.4005 13.2275 19.1861 13.2275 19.1861C13.2275 19.1861 14.2198 18.0902 15.2122 17.8629C15.7041 17.7501 19.192 15.9089 19.1818 18.1937C19.1725 20.2629 15.28 23.0607 14.3919 23.6932C14.5219 23.7686 14.6538 23.8407 14.7881 23.9092C15.3419 23.8242 16.3151 23.541 17.8582 22.8252C20.1536 21.76 24.4513 18.1352 24.4745 15.2166Z" fill="#fff"/><path d="M26.4778 18.858C26.6979 18.1049 26.8096 17.3244 26.8096 16.5398C26.8096 12.4724 23.8721 9.0933 20.0035 8.40161C19.8818 8.45454 19.6221 8.5197 19.1818 8.60075C16.2943 9.13101 13.6099 10.875 11.9043 13.5627C11.5425 13.9761 11.2428 15.2166 11.2428 15.2166C11.2428 15.2166 11.1786 15.8782 11.5735 15.8782C11.9685 15.8782 11.6897 14.8263 12.2351 14.2242C12.7624 13.6427 13.8874 11.7817 15.5431 10.9163C16.6135 10.342 20.0399 9.50977 21.8282 10.9163C23.6763 12.3768 18.9572 9.57891 16.5216 13.2831C15.9099 14.2133 15.5037 12.6692 14.5507 13.2319C13.4852 13.8607 13.8686 14.0278 12.5659 16.8706C11.6116 18.9536 12.3638 20.9238 12.1263 21.7594C12.7589 22.5353 13.5266 23.1904 14.3922 23.6932C15.2804 23.0607 19.1725 20.2629 19.1821 18.1938C19.1924 15.9093 15.7045 17.7502 15.2126 17.863C14.2202 18.0902 13.2278 19.1862 13.2278 19.1862C13.2278 19.1862 13.0108 18.4005 13.5586 17.5322C14.3731 16.2414 14.8818 17.2014 14.8818 17.2014C14.8818 17.2014 16.6701 14.9788 18.1898 14.2242C19.7094 13.4697 20.7018 13.0562 21.8285 12.9011C24.1288 12.5845 24.4957 12.6116 24.4748 15.2166C24.4517 18.1352 20.154 21.7601 17.859 22.8249C16.3155 23.5411 15.3426 23.8239 14.7889 23.9089C15.7386 24.3933 16.7734 24.6882 17.8358 24.7772C19.9102 23.9562 24.7335 21.7928 26.4778 18.858Z" fill="#3B97D3"/><path opacity=".88" d="M12.5659 16.8704C13.8686 14.0276 13.4852 13.8605 14.5507 13.2317C15.504 12.669 15.9099 14.2132 16.5215 13.283C18.9572 9.57873 23.6763 12.3766 21.8281 10.9161C20.0399 9.50959 16.6135 10.3419 15.5431 10.9161C13.8874 11.7815 12.7624 13.6425 12.2351 14.2241C11.6896 14.8261 11.9685 15.878 11.5735 15.878L11.2427 15.2164C11.2427 15.2164 11.5424 13.976 11.9043 13.5625C13.6099 10.8748 16.2943 9.13083 19.1818 8.60057C19.6221 8.51986 19.8818 8.45436 20.0035 8.40143C19.5204 8.31454 19.0306 8.27048 18.5397 8.26978C13.9725 8.26978 10.2699 11.9724 10.2699 16.5396C10.2673 18.4417 10.9232 20.286 12.1263 21.7592C12.3641 20.9236 11.6116 18.9534 12.5659 16.8704Z" fill="#fff"/></g><path d="M41.3878 10.4545H38.767V20.3693H38.6392L31.7926 10.4545H29.4347V25H32.0696V15.0923H32.1903L39.044 25H41.3878V10.4545ZM43.7589 25H53.2759V22.7912H46.3938V18.821H52.729V16.6122H46.3938V12.6634H53.2191V10.4545H43.7589V25Z" fill="#fff"/><path d="M6.36364 45C10.7955 45 13.4233 42.2585 13.4233 37.7131C13.4233 33.1818 10.7955 30.4545 6.46307 30.4545H1.43466V45H6.36364ZM4.0696 42.7202V32.7344H6.31392C9.26847 32.7344 10.8097 34.3821 10.8097 37.7131C10.8097 41.0582 9.26847 42.7202 6.2358 42.7202H4.0696ZM16.5135 45L17.7138 41.4134H23.1825L24.3899 45H27.2024L22.0746 30.4545H18.8217L13.701 45H16.5135ZM18.424 39.2969L20.3913 33.4375H20.505L22.4723 39.2969H18.424ZM36.2887 34.4531H38.8242C38.7745 31.9957 36.6793 30.2557 33.5827 30.2557C30.5288 30.2557 28.2347 31.9744 28.2418 34.5455C28.2418 36.6335 29.7262 37.8338 32.1197 38.4517L33.7745 38.8778C35.3441 39.2756 36.381 39.7656 36.3881 40.8949C36.381 42.1378 35.2021 42.9688 33.4833 42.9688C31.8356 42.9688 30.5572 42.2301 30.4506 40.7031H27.8583C27.9648 43.5938 30.1168 45.2202 33.5046 45.2202C36.9918 45.2202 39.016 43.4801 39.0231 40.9162C39.016 38.3949 36.935 37.2443 34.7475 36.7259L33.3839 36.3849C32.1907 36.1009 30.8981 35.5966 30.9123 34.3821C30.9194 33.2884 31.8995 32.4858 33.5472 32.4858C35.1168 32.4858 36.1538 33.2173 36.2887 34.4531ZM40.8722 45H43.5071V38.821H50.2472V45H52.8892V30.4545H50.2472V36.6122H43.5071V30.4545H40.8722V45Z" fill="#fff"/>
    </symbol>
    <symbol id="phone-icon" viewBox="0 0 24 24">
      <path fill-rule="evenodd" clip-rule="evenodd" d="M19.23 15.26L16.69 14.97C16.08 14.9 15.48 15.11 15.05 15.54L13.21 17.38C10.38 15.94 8.05999 13.63 6.61999 10.79L8.47 8.94001C8.89999 8.51001 9.10999 7.91001 9.03999 7.30001L8.74999 4.78001C8.62999 3.77001 7.77999 3.01001 6.75999 3.01001H5.02999C3.89999 3.01001 2.95999 3.95001 3.02999 5.08001C3.55999 13.62 10.39 20.44 18.92 20.97C20.05 21.04 20.99 20.1 20.99 18.97V17.24C21 16.23 20.24 15.38 19.23 15.26Z" fill="currentColor"/>
    </symbol>
    <symbol id="play-button-2" viewBox="0 0 68 68">
      <path fill-rule="evenodd" clip-rule="evenodd" d="M34.0002 68C52.7779 68 68.0002 52.7777 68.0002 34C68.0002 15.2223 52.7779 0 34.0002 0C15.2225 0 0.000183105 15.2223 0.000183105 34C0.000183105 52.7777 15.2225 68 34.0002 68Z" fill="#345DEE"/><path fill-rule="evenodd" clip-rule="evenodd" d="M29.9202 25.8401L29.9202 42.1601L43.5202 34.0001L29.9202 25.8401Z" fill="#fff"/>
    </symbol>
    <symbol id="play-button" viewBox="0 0 50 32">
      <rect width="50" height="32" rx="16" fill="#EE3465"/><path fill-rule="evenodd" clip-rule="evenodd" d="M22 10L22 22L32 16L22 10Z" fill="#fff"/>
    </symbol>
    <symbol id="search-icon" viewBox="0 0 24 24">
      <path fill-rule="evenodd" clip-rule="evenodd" d="M15.5 13.9999H14.71L14.43 13.7299C15.63 12.3299 16.25 10.4199 15.91 8.38989C15.44 5.60989 13.12 3.38989 10.32 3.04989C6.09002 2.52989 2.53002 6.08989 3.05002 10.3199C3.39002 13.1199 5.61002 15.4399 8.39002 15.9099C10.42 16.2499 12.33 15.6299 13.73 14.4299L14 14.7099V15.4999L18.25 19.7499C18.66 20.1599 19.33 20.1599 19.74 19.7499C20.15 19.3399 20.15 18.6699 19.74 18.2599L15.5 13.9999ZM9.50002 13.9999C7.01002 13.9999 5.00002 11.9899 5.00002 9.49989C5.00002 7.00989 7.01002 4.99989 9.50002 4.99989C11.99 4.99989 14 7.00989 14 9.49989C14 11.9899 11.99 13.9999 9.50002 13.9999Z" fill="currentColor"/>
    </symbol>
    <symbol id="telegram-icon" viewBox="0 0 24 24">
      <path d="M22.4393 4.62225L19.2705 19.566C19.0313 20.6205 18.408 20.883 17.5223 20.3865L12.6938 16.8285L10.3643 19.0695C10.1063 19.3275 9.89102 19.5428 9.39377 19.5428L9.74102 14.6258L18.6893 6.54C19.0785 6.1935 18.6045 6.00075 18.0848 6.348L7.02227 13.314L2.25977 11.823C1.22402 11.4998 1.20527 10.7873 2.47577 10.29L21.1035 3.11325C21.966 2.79 22.7205 3.30525 22.4393 4.623V4.62225Z" fill="currentColor"/>
    </symbol></svg>