<svg width="32" height="32" viewBox="0 0 32 32" fill="none" xmlns="http://www.w3.org/2000/svg">
<g clip-path="url(#clip0_698_1598)">
<path d="M19.4597 15.6121L28.609 6.34899C28.8606 6.094 28.9994 5.7538 28.9999 5.39105C28.9999 5.02811 28.861 4.68751 28.609 4.43292L27.8072 3.62141C27.555 3.36581 27.219 3.22583 26.8604 3.22583C26.5024 3.22583 26.1663 3.36581 25.9141 3.62141L16.765 12.8839L7.61537 3.62141C7.36371 3.36581 7.02748 3.22583 6.66897 3.22583C6.31088 3.22583 5.97465 3.36581 5.72298 3.62141L4.92083 4.43292C4.39879 4.96143 4.39879 5.82108 4.92083 6.34899L14.0702 15.6121L4.92083 24.8749C4.66896 25.1302 4.53029 25.4704 4.53029 25.8332C4.53029 26.196 4.66896 26.5362 4.92083 26.7914L5.72279 27.6029C5.97445 27.8582 6.31088 27.9985 6.66878 27.9985C7.02729 27.9985 7.36351 27.8582 7.61518 27.6029L16.7648 18.3401L25.914 27.6029C26.166 27.8582 26.502 27.9985 26.8602 27.9985H26.8605C27.2189 27.9985 27.5549 27.8582 27.8069 27.6029L28.6088 26.7914C28.8604 26.5363 28.9993 26.196 28.9993 25.8332C28.9993 25.4704 28.8604 25.1302 28.6088 24.8751L19.4597 15.6121Z" fill="white"/>
</g>
<defs>
<clipPath id="clip0_698_1598">
<rect width="26" height="24" fill="white" transform="translate(3 4)"/>
</clipPath>
</defs>
</svg>
